<?xml version="1.0" encoding="UTF-8" standalone="no"?>
<svg xmlns:rdf="http://www.w3.org/1999/02/22-rdf-syntax-ns#" xmlns="http://www.w3.org/2000/svg" height="220.27" width="474.67" version="1.1" xmlns:cc="http://creativecommons.org/ns#" xmlns:dc="http://purl.org/dc/elements/1.1/" viewBox="0 0 379.65322 176.17534">
 <path d="m3.4724 109.73s13-21.5 25.5-34c16.5-20 26-30.5 40.5-52 24.5-36.5 1-15-8 8-7.5 33 26-2.5 13 30.5-3.5 15.5-13.5 26-19.5 23.5-3.545-2.215 13-15 27.5-7.5 9 2 22 36.5-5.5 80.5-13 18-24 23.5-21-9 5.5-28 37-67 43.5-73 33-36.5-7 24 14.5 7.5 16-9.5-1 14 39-19m23.5-19s-11.5 22.5-11.5 29m11.5-49.5c30-25.5 60.5-31 38.5-5.5-11.5 14.5 7.5 15 13.5 26.5 6 9-6.5 30.5-19 38.5-30 13-4-31.5 25-10.5 9 6.5 26.5-0.5 49.5-15 63.5-45.5 0-19.5-12.5 1-19 21.5-14.5 44 44.5 26.5 11.5-3.5 47-17 60.5-15.5" stroke="#000" stroke-linecap="round" stroke-width="5" fill="none"/>
</svg>
