<?xml version="1.0" standalone="no"?>
<!DOCTYPE svg PUBLIC "-//W3C//DTD SVG 20010904//EN"
 "http://www.w3.org/TR/2001/REC-SVG-20010904/DTD/svg10.dtd">
<svg version="1.0" xmlns="http://www.w3.org/2000/svg"
 width="300.000000pt" height="132.000000pt" viewBox="0 0 300.000000 132.000000"
 preserveAspectRatio="xMidYMid meet">
<metadata>
Created by potrace 1.10, written by Peter Selinger 2001-2011
</metadata>
<g transform="translate(0.000000,132.000000) scale(0.050000,-0.050000)"
fill="#000000" stroke="none">
<path d="M5011 2542 c-34 -75 -32 -142 3 -142 40 0 132 146 112 178 -37 59
-78 46 -115 -36z"/>
<path d="M5120 2145 c-16 -6 -51 -29 -76 -52 -38 -35 -52 -38 -84 -17 -35 21
-43 14 -84 -81 -104 -243 -295 -524 -422 -621 -101 -76 -127 -67 -60 21 138
179 312 559 282 613 -46 81 -79 33 -178 -258 -26 -76 -273 -350 -316 -350 -10
0 -73 -31 -140 -69 -126 -71 -173 -66 -57 6 217 135 243 248 58 259 -145 9
-137 49 30 158 49 32 -15 91 -81 75 -36 -9 -43 -1 -46 53 -21 297 -674 267
-1017 -46 -225 -206 -15 -395 330 -296 100 28 99 21 -25 -229 -142 -285 -143
-394 -3 -302 36 24 59 25 108 8 55 -19 79 -14 188 40 76 37 141 57 167 50 29
-7 125 30 288 111 264 131 280 135 218 57 -98 -126 -25 -177 125 -87 l111 67
22 -48 c39 -85 155 -61 357 73 57 39 66 40 77 12 16 -42 146 -42 283 -2 l101
30 63 -62 c64 -64 62 -64 231 -30 331 68 474 270 391 550 -14 49 -14 77 2 95
16 20 15 35 -4 58 -18 22 -30 24 -40 8 -9 -16 -25 -11 -51 15 -129 130 -583
246 -748 191z m240 -76 c0 -26 -80 -164 -108 -188 -88 -73 -231 78 -144 152
50 43 252 72 252 36z m265 -47 c207 -72 257 -124 152 -160 -63 -22 -417 -32
-417 -11 0 36 105 209 127 209 15 0 77 -17 138 -38z m-1811 -23 c47 -18 86
-90 86 -159 0 -30 -30 -48 -135 -80 -74 -23 -151 -46 -170 -52 -55 -17 -41 25
37 112 60 66 69 85 48 110 -46 55 -90 33 -147 -75 -90 -172 -114 -194 -244
-225 -328 -79 -467 -4 -290 157 210 190 603 292 815 212z m1201 -86 c12 -26
59 -65 104 -88 l83 -41 -111 -130 c-118 -139 -312 -303 -439 -371 -86 -46
-127 -39 -87 14 14 18 75 101 136 183 61 83 146 224 189 315 85 180 93 188
125 118z m901 -216 c15 -225 -235 -430 -478 -393 l-42 6 41 52 c23 29 116 109
207 178 161 121 202 182 131 196 -35 7 -108 -41 -285 -188 -146 -121 -471
-255 -513 -213 -9 9 55 102 143 206 88 104 160 196 160 204 0 8 106 16 235 16
129 1 253 10 275 19 87 38 120 17 126 -83z m-2256 -77 c0 -11 -11 -20 -25 -21
-61 -1 -99 -53 -71 -98 27 -45 75 -47 223 -10 l57 14 -32 -62 c-75 -144 -249
-293 -398 -342 -99 -32 -109 -19 -48 63 132 175 178 316 123 377 -33 36 -32
39 13 56 27 9 62 22 78 29 48 18 80 16 80 -6z m340 -161 c-138 -118 -159 -120
-106 -10 29 62 43 71 105 70 l71 0 -70 -60z"/>
<path d="M494 2001 c-60 -71 -106 -208 -124 -369 -10 -88 -33 -150 -90 -240
-133 -211 -228 -430 -229 -531 l-1 -91 78 5 c59 3 85 -5 106 -35 50 -71 245
-26 386 89 21 17 101 23 259 20 228 -6 385 36 433 115 7 10 25 0 41 -23 38
-53 51 -52 125 11 53 44 64 47 74 20 23 -61 242 17 297 106 7 12 23 22 35 22
13 0 12 -11 -4 -30 -30 -37 -12 -90 31 -90 18 0 49 20 69 44 27 34 42 39 63
23 32 -26 415 -30 500 -6 32 9 57 8 57 -2 0 -26 -508 -779 -579 -857 -69 -76
-74 -93 -32 -109 45 -17 192 160 449 545 127 191 270 391 317 443 150 167 115
215 -88 119 -152 -72 -233 -82 -180 -23 41 45 24 103 -29 103 -21 0 -62 -27
-91 -60 -87 -97 -295 -142 -235 -50 53 82 -10 155 -71 81 -16 -19 -46 -24 -93
-17 -60 10 -85 -1 -189 -82 -108 -83 -119 -88 -108 -44 17 65 -45 103 -94 59
-30 -27 -36 -26 -56 11 -32 60 -52 53 -166 -49 -146 -131 -177 -145 -163 -73
38 190 -301 97 -363 -100 -13 -39 -43 -45 -86 -18 -20 12 -21 21 -4 31 167
104 277 729 165 944 -90 175 -306 231 -410 108z m323 -69 c138 -138 50 -743
-134 -919 l-58 -56 -44 46 c-95 102 -125 175 -136 334 l-10 157 74 82 c41 45
91 88 113 94 48 16 49 62 3 88 -28 15 -49 6 -100 -43 -76 -73 -83 -51 -34 99
61 186 206 238 326 118z m-451 -669 c-10 -7 -56 -92 -102 -188 -77 -161 -175
-259 -124 -126 74 196 203 401 225 361 12 -21 12 -40 1 -47z m153 -268 c37
-43 60 -84 49 -92 -278 -198 -362 -166 -238 92 66 138 77 151 97 117 13 -22
54 -74 92 -117z m505 1 c-23 -24 -50 -37 -58 -28 -9 8 6 33 32 54 62 51 83 30
26 -26z"/>
</g>
</svg>
